<svg xmlns="http://www.w3.org/2000/svg" viewBox="0 0 225.81 30.04"><path fill="#fff" d="M0 13.17l3.49-3.49 3.5 3.5-3.5 3.49zm215.13.01l3.49-3.5 3.5 3.5-3.5 3.5z"/><g fill="#636466"><path d="M28.6 13.3h1.28V8.2h2V6.95H28.6v6.36zm9.1.93V6.48a2.8 2.8 0 0 0-1.56-2.49 2.74 2.74 0 0 1 .3 1.21v7.75a2.73 2.73 0 0 1-1.02 2.15 3.18 3.18 0 0 1 1.01 2.26v8.62a2.83 2.83 0 0 1-2.78 2.78h-8.3v1.28h9.57a2.83 2.83 0 0 0 2.79-2.79v-8.61a3.18 3.18 0 0 0-1.02-2.26 2.73 2.73 0 0 0 1.02-2.15z"/><path d="M28.6 24.21h1.28V19.1h2v-1.3H28.6v6.4z"/></g><g fill="#636466"><path d="M48.78 24.21h1.27v-16h2V6.94h-3.27V24.2z"/><path d="M56.31 4a2.71 2.71 0 0 1 .3 1.2v20.78a2.83 2.83 0 0 1-2.79 2.79h-6.77a2.71 2.71 0 0 1-1.22-.3 2.79 2.79 0 0 0 2.49 1.57h6.78a2.83 2.83 0 0 0 2.79-2.79V6.48a2.79 2.79 0 0 0-1.58-2.49z"/></g><path d="M68.95 13.3h1.28V8.2h2V6.95h-3.28v6.36zm7.49 5.52a2.73 2.73 0 0 0 1.58-2.48V6.48a2.78 2.78 0 0 0-1.57-2.5 2.77 2.77 0 0 1 .3 1.23v9.86a2.73 2.73 0 0 1-1.58 2.48l1.88 11.22H73.6l.21 1.27h4.52zm-5.75-1.01h-1.74v10.96h-3.24v1.27h4.52V19.09h.67l-.21-1.28z" fill="#636466"/><g fill="#636466"><path d="M88.53 24.21h1.27v-16h2V6.94h-3.27V24.2z"/><path d="M96.06 4a2.72 2.72 0 0 1 .3 1.2v20.78a2.83 2.83 0 0 1-2.79 2.79H86.8a2.72 2.72 0 0 1-1.21-.3 2.79 2.79 0 0 0 2.48 1.57h6.78a2.83 2.83 0 0 0 2.78-2.79V6.48a2.79 2.79 0 0 0-1.57-2.49z"/></g><g fill="#636466"><path d="M108.7 24.21h1.28v-16h2V6.94h-3.28V24.2z"/><path d="M116.24 4a2.72 2.72 0 0 1 .3 1.2v20.78a2.83 2.83 0 0 1-2.8 2.79h-8.28v1.27h9.56a2.83 2.83 0 0 0 2.78-2.79V6.48a2.79 2.79 0 0 0-1.56-2.49z"/></g><path fill="#636466" d="M129.1 3.7v25.07h-3.24v1.27h4.52V3.69h-1.28zm20.1 0v25.07h-3.6l.36 1.27h4.52V3.69h-1.27zm-7.82 13.55v11.52h-3.25v1.27h4.52v-8.36l-1.27-4.43z"/><g fill="#636466"><path d="M161.1 19.09h3.73V17.8h-5.01a2.74 2.74 0 0 1-1.22-.29 2.77 2.77 0 0 0 2.5 1.57zm1.72 1.69l-1.27.3v3.13h1.27v-3.43zM169.09 4a2.72 2.72 0 0 1 .3 1.2v5.35l-3.29.76v1.57l4.55-1.06V6.48a2.8 2.8 0 0 0-1.56-2.49z"/><path d="M169.09 14.87a2.73 2.73 0 0 1 .3 1.21v9.9a2.83 2.83 0 0 1-2.8 2.79h-6.77a2.72 2.72 0 0 1-1.21-.3 2.79 2.79 0 0 0 2.49 1.57h6.77a2.83 2.83 0 0 0 2.79-2.79v-9.9a2.78 2.78 0 0 0-1.57-2.48zm-7.54-7.93v6.36h1.27V8.2h2V6.95h-3.27z"/></g><path d="M182.14 17.81h-.41v10.96h-3.25v1.27H183v-9.49l-.86-2.74zM191.4 3.7h-1.69l-3.8 11.86 4.21 13.2h-3.67l.35 1.13.04.15h4.55l-4.21-13.21 4.21-13.14zm10.62 0v25.07h-3.25v1.27h4.52V3.69h-1.27zm19.03 15.39l3.5-3.5 1.26 1.28-3.49 3.5zm-215.13 0l3.5-3.5 1.27 1.28-3.5 3.5z" fill="#636466"/><path d="M34.01 10.54A2.73 2.73 0 0 1 33 12.69a3.18 3.18 0 0 1 1.02 2.25v8.62a2.83 2.83 0 0 1-2.79 2.79h-9.56V0h9.56a2.8 2.8 0 0 1 2.79 2.79zm-4.55-6.02h-3.28v6.36h3.28zm0 10.88h-3.28v6.4h3.28zM51.4 0a2.8 2.8 0 0 1 2.79 2.79v20.77a2.83 2.83 0 0 1-2.79 2.79h-6.77a2.8 2.8 0 0 1-2.79-2.79V2.8A2.78 2.78 0 0 1 44.63 0zm-1.77 4.52h-3.27v17.27h3.27zm20.48 21.83L68.27 15.4h-1.74v10.95h-4.51V0h9.56a2.77 2.77 0 0 1 2.75 2.79v9.86a2.73 2.73 0 0 1-1.58 2.48l1.88 11.22zm-.3-21.83h-3.28v6.36h3.28zM91.15 0a2.8 2.8 0 0 1 2.79 2.79v20.77a2.83 2.83 0 0 1-2.79 2.79h-6.77a2.8 2.8 0 0 1-2.79-2.79V2.8A2.78 2.78 0 0 1 84.38 0zm-1.77 4.52h-3.27v17.27h3.27zM111.33 0a2.8 2.8 0 0 1 2.78 2.79v20.77a2.83 2.83 0 0 1-2.78 2.79h-9.56V0zm-1.77 4.52h-3.28v17.27h3.28zM122.17 0h4.52v26.35h-4.52zm24.61 0v26.35h-4.51l-3.31-11.52v11.52h-4.52V0h4.48l3.31 10.8V0zm17.4 10.88a2.8 2.8 0 0 1 2.78 2.78v9.9a2.83 2.83 0 0 1-2.78 2.79h-6.78a2.8 2.8 0 0 1-2.78-2.79v-5.42l4.51-1.05v4.7h3.28v-6.4h-5.01a2.78 2.78 0 0 1-2.78-2.78V2.79A2.78 2.78 0 0 1 157.4 0h6.78a2.8 2.8 0 0 1 2.78 2.79v5.34l-4.55 1.05V4.52h-3.28v6.36zm19.31 2.26l4.21 13.2h-4.55l-.04-.14-3.39-10.8h-.41v10.95h-4.52V0h4.52v10.88h.34L183.1 0h4.59zM195.08 0h4.52v26.35h-4.52z" fill="#fff"/></svg>