<svg xmlns="http://www.w3.org/2000/svg" viewBox="0 0 369.46 100.88"><g fill="#fff"><path d="M119.86 11.43C127.03 9 127.59 0 120.5 0c-1.94 0-4.27 1.37-5.88 4.17l-9.58 16.56a13.85 13.85 0 0 1-1.37 2.02c-2.46-3.38-1.74-8.45 1.71-10.67l-1.43-1.81c-7.46 4.75-5.27 18.47 7.18 18.47 10.64 0 15.57-12.76 8.73-17.31zM111.06 26a10.23 10.23 0 0 1-5.13-1.23 18.46 18.46 0 0 0 1.78-2.53l5.99-10.37.96.1C123 13.72 119.69 26 111.06 26zm3.84-16.21l2.87-4.93c2.6-4.48 5.92-1.85 4.14 1.5-1.37 2.57-3.39 3.36-7.01 3.42z"/><path d="M259.2 18.95l-.23.28a16.75 16.75 0 0 1-6.5 5c.58-.93 1.02-1.92 1.47-2.68l3.93-6.73c3.32-5.65-2.05-7.53-5.68-4.28l.72-1.23h-3.56l-5.56 9.65h-.01l-.24.27a7.67 7.67 0 0 1-5.37 2.63l3.35-5.78c2.16-3.73.17-7.25-3.18-7.25-2.74 0-4.86 1.1-6.91 4.65l-1.75 3.05-1.45 2.48-.19.22c-2.56 2.98-5.06 5.34-6.64 5.34-.78 0-1.23-.55-.4-1.95l5.12-9c1.54-2.7.07-4.66-1.91-4.66-1.54 0-3.18.86-4.96 2.7l5.68-9.88h-3.56L211.44 19l-.2.23a22.15 22.15 0 0 1-4.27 3.87c1.13-3.39.89-8.59 3.08-13.14l-2.67-1.44c-1.47 2.02-4.69 6.68-7.9 10.44l-.24.27c-2.57 2.98-5.07 5.34-6.64 5.34-.78 0-1.23-.55-.4-1.95l3.55-6.23c1.23-2.15.65-3.42-.52-4.82l-1.98-2.4a1.39 1.39 0 0 1 .2-2.05L191.6 5.1c-2.02 1.81-2.19 3.83-.92 5.47l.3.41c-1.57 2.23-3.7 5.24-6.02 7.98l-.24.27c-2.56 2.98-5.85 5.34-8.34 5.34-2.2 0-3.5-1.37-1.85-4.25l.34-.61c2.3.96 6.6.51 9.27-4.1l.51-.9c1.92-3.28.07-5.74-2.84-5.74a7.53 7.53 0 0 0-6.67 4.1L171.7 19l-.21.24a7.6 7.6 0 0 1-5.38 2.63l3.36-5.78a8.67 8.67 0 0 0 1.33-4.07 3.04 3.04 0 0 0-3.21-3.18 4.14 4.14 0 0 0-2.33.79l4.52-7.84h-3.63l-9.97 17.24-.2.21c-2.56 2.98-5.05 5.34-6.63 5.34-.79 0-1.23-.55-.4-1.95l3.55-6.23c1.23-2.15.65-3.42-.52-4.82L150 9.17a1.39 1.39 0 0 1 .2-2.05l-1.84-2.02c-2.02 1.81-2.2 3.83-.93 5.47l.31.41c-1.57 2.23-3.7 5.24-6.02 7.98l-.24.27c-2.56 2.98-5.06 5.34-6.63 5.34-.8 0-1.24-.55-.42-1.95l5.75-10.06h-2.02a3.7 3.7 0 0 0-3.73-3.6c-1.91 0-4.58 1.5-6.09 4.11l-4.99 8.62c-1.5 2.64-.45 5.07 2.43 5.07 1.43 0 3.21-.93 4.92-2.33.18 1.37 1.27 2.33 3.08 2.33 2.95 0 6.33-3.15 9.28-6.57 1.7-1.99 3.04-3.77 5.88-7.63l.48.58a1.75 1.75 0 0 1 .2 2.02l-3.76 6.54c-1.5 2.63-.44 5.06 2.43 5.06 2.06 0 4.34-1.55 6.54-3.65v.03c0 2.43 1.81 3.8 4.1 3.8a7.87 7.87 0 0 0 6.06-3.32 6.07 6.07 0 0 0 .78.03 10.44 10.44 0 0 0 4.73-1.4c-.19 2.57 1.68 4.52 4.82 4.52 4.04 0 8.04-3.15 10.98-6.57a117 117 0 0 0 5.89-7.63l.48.58a1.75 1.75 0 0 1 .2 2.02l-3.76 6.53c-1.5 2.63-.45 5.06 2.42 5.06 2.95 0 6.33-3.14 9.28-6.57 2.01-2.32 3.8-4.82 5.06-6.5-1.4 3.7-.65 10.34-4.04 10.34a2 2 0 0 1-1.67-1.3l-2.23 1.16a3.88 3.88 0 0 0 3.9 2.88 9.68 9.68 0 0 0 1-.07c.03 0 .06-.04.1-.04a12.54 12.54 0 0 0 5.46-2.36l-1.22 2.12h3.6l5.4-9.4c5.47-6.88 7.9-6 6.36-3.36l-4.62 8.04c-1.5 2.63-.45 5.06 2.43 5.06 2.06 0 4.35-1.55 6.55-3.66 0 4.53 6.3 5.42 10.14.55h.8a9.8 9.8 0 0 0 3.8-.95l-6.48 11.25h3.6l10.64-18.51c3.96-5.4 6.46-3.42 5.54-1.81l-5.37 9.3a1.37 1.37 0 0 1-2.57 0l-2.02.96a3.88 3.88 0 0 0 3.9 2.87h.21c5.17-.1 8.55-3.18 11.46-6.57a2.25 2.25 0 0 0-1.34-1.24zm-81.01-5c2.05-3.52 5.68-2.94 3.56.76l-.52.89c-1.7 2.9-4 2.84-5.33 2.36zm-45.6 5.62c-2.16 3.38-4.28 5-5.75 5-.79 0-1.23-.55-.41-1.95l4.96-8.66c1.92-3.32 5.71-2.46 3.97.75zm26.79 4.85a1.33 1.33 0 0 1-1.44-1.37 4.01 4.01 0 0 1 .62-1.84l1.26-2.2a5.23 5.23 0 0 0 2.26 3.7 3.34 3.34 0 0 1-2.7 1.72zm3.73-3.45a3.84 3.84 0 0 1-1.51-3.22c0-2.53 2.46-6.67 4.48-6.67a1.36 1.36 0 0 1 1.34 1.54 4.34 4.34 0 0 1-.69 2.12zm73.08-1.78h-.17a2.1 2.1 0 0 0-2.1 2.12 2.34 2.34 0 0 0 .35 1.2l-.04.07c-1.67 2.87-5.74 2.32-3.62-1.37l2.7-4.69 1.7-2.9c2.5-4.25 5.93-2.57 3.77 1.12z"/></g><path fill="#fff" d="M0 73.27l5.7-5.7 5.72 5.7L5.71 79zm351.99-.01l5.71-5.71 5.72 5.71-5.72 5.72z"/><g fill="#636466"><path d="M46.8 73.48h2.08v-8.32h3.27v-2.09H46.8v10.41zM61.69 75V62.33a4.56 4.56 0 0 0-2.57-4.07 4.46 4.46 0 0 1 .49 2v12.68a4.47 4.47 0 0 1-1.67 3.5 5.2 5.2 0 0 1 1.67 3.7v14.1a4.63 4.63 0 0 1-4.56 4.56H41.49v2.09h15.64a4.63 4.63 0 0 0 4.56-4.56v-14.1a5.2 5.2 0 0 0-1.66-3.7 4.47 4.47 0 0 0 1.66-3.51z"/><path d="M46.8 91.34h2.08v-8.39h3.27v-2.08H46.8v10.47z"/></g><g fill="#636466"><path d="M79.8 91.34h2.09V65.16h3.27v-2.09h-5.35v28.27z"/><path d="M92.14 58.25a4.45 4.45 0 0 1 .47 1.99v34a4.63 4.63 0 0 1-4.55 4.55H76.97a4.47 4.47 0 0 1-1.98-.48 4.57 4.57 0 0 0 4.07 2.56h11.08a4.63 4.63 0 0 0 4.56-4.55v-34a4.57 4.57 0 0 0-2.56-4.07z"/></g><path d="M112.82 73.48h2.08v-8.32h3.28v-2.09h-5.36v10.41zm12.24 9.04a4.47 4.47 0 0 0 2.59-4.06V62.32a4.55 4.55 0 0 0-2.57-4.1 4.54 4.54 0 0 1 .48 2.02v16.13a4.47 4.47 0 0 1-2.58 4.07l3.08 18.35h-5.66l.35 2.08h7.4zm-9.41-1.65h-2.83V98.8h-5.3v2.08h7.38V82.95h1.1l-.35-2.08z" fill="#636466"/><g fill="#636466"><path d="M144.84 91.34h2.09V65.16h3.27v-2.09h-5.35v28.27z"/><path d="M157.17 58.25a4.44 4.44 0 0 1 .48 1.99v34a4.63 4.63 0 0 1-4.55 4.55H142a4.46 4.46 0 0 1-1.98-.48 4.56 4.56 0 0 0 4.06 2.56h11.09a4.63 4.63 0 0 0 4.56-4.55v-34a4.57 4.57 0 0 0-2.57-4.07z"/></g><g fill="#636466"><path d="M177.85 91.34h2.09V65.16h3.27v-2.09h-5.36v28.27z"/><path d="M190.19 58.25a4.46 4.46 0 0 1 .47 1.99v34a4.63 4.63 0 0 1-4.55 4.55h-13.56v2.08h15.64a4.63 4.63 0 0 0 4.56-4.55v-34a4.57 4.57 0 0 0-2.56-4.07z"/></g><path fill="#636466" d="M211.24 57.77v41.02h-5.31v2.08h7.39v-43.1h-2.08zm32.88 0v41.02h-5.9l.6 2.08h7.39v-43.1h-2.09zm-12.81 22.18v18.84h-5.3v2.08h7.39V87.2l-2.09-7.24z"/><g fill="#636466"><path d="M263.57 82.95h6.11v-2.08h-8.19a4.54 4.54 0 0 1-2-.48 4.53 4.53 0 0 0 4.08 2.56zm2.83 2.77l-2.08.5v5.12h2.09v-5.62zm10.25-27.47a4.45 4.45 0 0 1 .48 1.99v8.74l-5.37 1.25v2.56l7.45-1.72v-8.75a4.56 4.56 0 0 0-2.56-4.07z"/><path d="M276.65 76.05a4.45 4.45 0 0 1 .48 1.99v16.2a4.63 4.63 0 0 1-4.56 4.55H261.5a4.47 4.47 0 0 1-1.99-.48 4.56 4.56 0 0 0 4.07 2.57h11.09a4.63 4.63 0 0 0 4.56-4.56v-16.2a4.56 4.56 0 0 0-2.57-4.07zm-12.33-12.98v10.41h2.09v-8.32h3.27v-2.09h-5.36z"/></g><path d="M298.01 80.87h-.68V98.8h-5.3v2.08h7.39V85.36l-1.4-4.48zm15.14-23.1h-2.75l-6.23 19.4 6.9 21.62h-6l.57 1.84.06.25h7.45l-6.9-21.62 6.9-21.5zm17.38 0v41.02h-5.3v2.08h7.38v-43.1h-2.08zm31.13 25.17l5.7-5.71 2.1 2.08-5.72 5.72zm-351.99.01l5.72-5.72 2.09 2.09-5.72 5.72z" fill="#636466"/><path d="M55.65 68.97a4.47 4.47 0 0 1-1.67 3.5 5.2 5.2 0 0 1 1.67 3.7v14.1a4.63 4.63 0 0 1-4.56 4.56H35.45v-43.1h15.64a4.58 4.58 0 0 1 4.56 4.55v12.69zm-7.46-9.86h-5.35v10.41h5.35zm0 17.8h-5.35v10.47h5.35zM84.1 51.73a4.58 4.58 0 0 1 4.56 4.55v34a4.63 4.63 0 0 1-4.56 4.55H73.02a4.59 4.59 0 0 1-4.56-4.55v-34a4.55 4.55 0 0 1 4.56-4.56zm-2.9 7.38h-5.35v28.27h5.36zm33.5 35.72l-3-17.92h-2.84v17.92h-7.4v-43.1h15.65a4.53 4.53 0 0 1 4.5 4.55v16.14a4.46 4.46 0 0 1-2.59 4.06l3.08 18.35zm-.48-35.72h-5.36v10.41h5.36zm34.92-7.38a4.58 4.58 0 0 1 4.56 4.55v34a4.63 4.63 0 0 1-4.56 4.55h-11.09a4.59 4.59 0 0 1-4.56-4.55v-34a4.55 4.55 0 0 1 4.56-4.56zm-2.9 7.38h-5.36v28.27h5.36zm35.91-7.38a4.59 4.59 0 0 1 4.55 4.55v34a4.63 4.63 0 0 1-4.55 4.55H166.5v-43.1zm-2.9 7.38h-5.35v28.27h5.36zm20.64-7.38h7.39v43.1h-7.4zm40.27 0v43.1h-7.39L227.35 76v18.84h-7.39v-43.1h7.33l5.42 17.67V51.72zm28.46 17.79a4.59 4.59 0 0 1 4.56 4.56v16.2a4.63 4.63 0 0 1-4.56 4.56h-11.09a4.59 4.59 0 0 1-4.55-4.56V81.4l7.38-1.73v7.7h5.36V76.91h-8.19a4.55 4.55 0 0 1-4.55-4.56V56.28a4.55 4.55 0 0 1 4.55-4.56h11.09a4.59 4.59 0 0 1 4.55 4.56v8.74l-7.45 1.73v-7.64h-5.36v10.41zm31.59 3.7l6.9 21.61h-7.45l-.06-.24-5.54-17.68h-.68v17.92h-7.4v-43.1h7.4v17.8h.55l5.67-17.8h7.51zm18.97-21.49h7.4v43.1h-7.4z" fill="#fff"/></svg>